<?xml version="1.0" encoding="utf-8"?>
<!-- Generator: Adobe Illustrator 22.1.0, SVG Export Plug-In . SVG Version: 6.00 Build 0)  -->
<svg version="1.1" id="레이어_1" xmlns="http://www.w3.org/2000/svg" xmlns:xlink="http://www.w3.org/1999/xlink" x="0px"
	 y="0px" width="85px" height="85px" viewBox="0 0 85 85" style="enable-background:new 0 0 85 85;" xml:space="preserve">
<style type="text/css">
	.st0{clip-path:url(#SVGID_2_);}
	.st1{fill:#FDFDFD;}
	.st2{fill:#A2E4FE;}
	.st3{fill:#FEFEFE;}
	.st4{fill:#C3EDFD;}
	.st5{fill:#020102;}
	.st6{fill:#5B97DC;}
	.st7{fill:#C4EEFE;}
	.st8{fill:#010101;}
	.st9{fill:#5B97DA;}
	.st10{fill:#040607;}
	.st11{fill:#12181B;}
	.st12{fill:#19252E;}
	.st13{fill:#577E93;}
	.st14{fill:#BEBEBE;}
	.st15{fill:#BDBDBD;}
	.st16{fill:#373737;}
	.st17{fill:#597D8B;}
	.st18{fill:#7C7C7C;}
	.st19{fill:#A1E2FC;}
	.st20{fill:#7CB4D3;}
	.st21{fill:#2A2A2A;}
	.st22{fill:#EE698C;}
	.st23{fill:#F09DC1;}
	.st24{fill:#4D7CB2;}
</style>
<g>
	<defs>
		<circle id="SVGID_1_" cx="42.5" cy="42.5" r="42.5"/>
	</defs>
	<clipPath id="SVGID_2_">
		<use xlink:href="#SVGID_1_"  style="overflow:visible;"/>
	</clipPath>
	<g class="st0">
		<g>
			<path class="st1" d="M32.6,85.1c-10.7,0-21.4,0-32.1,0c-0.3,0-0.4-0.1-0.4-0.4c0-28.1,0-56.1,0-84.2c0-0.4,0.1-0.4,0.4-0.4
				c28.1,0,56.1,0,84.2,0c0.3,0,0.4,0,0.4,0.4c0,28.1,0,56.1,0,84.2c0,0.3-0.1,0.4-0.4,0.4c-4.7,0-9.4,0-14.2,0
				c-0.1-0.1-0.1-0.3-0.1-0.4c0.2-1.4,0.2-2.9,0.3-4.3c0.1-0.9,0.1-1.9,0.2-2.8c0.1-2,0.2-3.9,0.3-5.9c0.1-1.6,0.1-3.2,0.2-4.8
				c0.1-1.2,0.1-2.3,0.1-3.5c-0.1-2.3,0-4.6-0.1-7c-0.1-2-0.1-4-0.3-6.1c-0.1-1.6-0.2-3.2-0.3-4.8c0-0.3,0.1-0.6,0.4-0.8
				c0.8-0.7,1.7-1,2.7-1.2c1.3-0.2,2.5-0.1,3.8,0.2c0.3,0.1,0.7,0.2,1,0.2c0.4,0,0.6-0.1,0.7-0.5c0.1-0.3,0.1-0.7,0-1
				c-0.2-0.9-0.6-1.7-1.1-2.4c-1-1.4-2.2-2.7-3.5-3.9c-1.2-1.1-2.6-2.1-4-3c-0.4-0.2-0.9-0.5-1.3-0.7c-0.4-0.2-0.6-0.5-0.7-0.9
				c-0.3-1.4-0.5-2.8-0.8-4.1c-0.6-2.9-1.5-5.7-2.9-8.4c-0.7-1.3-1.6-2.4-2.6-3.4c-1.6-1.7-3.3-3.2-5.3-4.4
				c-1.5-0.9-3.1-1.7-4.8-2.3c-1.2-0.4-2.4-0.9-3.6-1.2c-2.1-0.4-4.2-0.4-6.4-0.1c-4,0.6-7.6,2.1-11,4.3c-1.6,1-2.8,2.4-4,3.9
				c-1,1.3-1.9,2.6-2.7,4.1c-0.7,1.4-1.2,2.9-1.6,4.4c-0.6,2.2-0.9,4.5-0.7,6.8c0,0.3-0.1,0.5-0.4,0.6c-0.8,0.3-1.6,0.5-2.4,0.7
				c-2.7,0.7-5,2-7.1,3.8c-0.7,0.6-1.5,1.2-2,2c-0.5,0.7-0.7,1.5-0.4,2.4c0.1,0.4,0.4,0.7,0.8,0.9c0.4,0.2,0.9,0.3,1.3,0.4
				c1.8,0.3,3.7,0.2,5.5,0c2.1-0.2,4.2-0.6,6.3-1c0.2,0,0.6-0.2,0.6,0.1c0.1,0.2-0.3,0.3-0.5,0.4c-2.3,0.9-4.6,2-6.9,3.1
				c-1,0.5-2,0.9-2.8,1.5c-0.3,0.3-0.7,0.5-1,0.8c-1.2,1-1.1,3.3,0.2,4.3c1,0.8,2.2,1.1,3.4,1.4c0.9,0.3,1.9,0.3,2.9,0.3
				c1,0,2-0.1,3-0.4c0.4,0,0.8-0.1,1.2-0.2c1-0.3,2.1-0.1,3.1,0.1c0.2,0,0.3,0.2,0.4,0.4c0.2,0.6,0.4,1.2,0.5,1.8
				c0.1,0.2,0,0.4-0.1,0.6c-0.1,0.2-0.2,0.5-0.4,0.7c-1.3,1.9-2.4,3.9-3.5,5.9c-0.6,1.1-1.1,2.2-1.3,3.4c-0.2,0.9-0.4,1.9-0.3,2.9
				c0.2,1.5,1,2.3,2.4,2.6c0.9,0.1,1.8-0.4,2.1-1.2c0.2-0.4,0.4-0.7,0.7-0.9c0.9-0.8,1.7-1.6,2.5-2.4c0.1-0.1,0.2-0.2,0.2-0.2
				c0.4-0.4,0.6-0.3,0.7,0.2c0.2,1.1,0.3,2.2,0.4,3.4c0.2,2.2,0.3,4.3,0.5,6.5c0.2,2.1,0.4,4.2,0.5,6.3c0,0.8,0,1.7,0.1,2.5
				C32.7,84.7,32.7,84.9,32.6,85.1z"/>
			<path class="st2" d="M69.7,85.1c-5.4,0-10.8,0-16.2,0c-0.2-0.5-0.2-1.1-0.2-1.7c-0.1-1,0-1.9-0.1-2.9c-0.1-1.1,0-2.3,0-3.4
				c0-2.2-0.1-4.4-0.2-6.6c0-0.1,0-0.2,0-0.3c0-0.2,0.1-0.3,0.3-0.4c2.4-1.2,4.4-2.9,6.5-4.4c1.4-1,2.5-2.2,3.4-3.7
				c0.5-0.8,0.6-1.7,0.5-2.7c0-0.3-0.1-0.5-0.1-0.8c0-0.1,0-0.2-0.1-0.2c-0.1,0-0.1,0.1-0.2,0.1c-0.2,0.4-0.3,0.7-0.5,1.1
				c-0.8,1.5-1.9,2.8-3.1,4.1c-1.8,1.8-3.8,3.5-5.9,5c-2,1.4-4.2,2.4-6.5,3.3c-1.2,0.5-2.4,0.5-3.6,0c-0.2-0.1-0.3-0.1-0.4-0.3
				c0.2-1.5,0.7-2.9,1.7-4c0.2-0.3,0.4-0.6,0.6-0.9c0.6-1,1.5-1.9,2.2-2.9c0.2-0.2,0.3-0.4,0.5-0.6c0.7-1.2,1.6-2.3,2.5-3.3
				c0.8-0.9,1.5-1.9,2.2-2.9c0.7-1,1.6-1.9,2.4-2.8c1.1-1.2,2.2-2.5,3.3-3.8c0.4-0.4,0.7-0.9,1-1.4c0.1-0.2,0.2-0.3,0.1-0.5
				c0-0.1,0.2-0.3-0.2-0.2c-0.4,0.1-0.7,0.3-1,0.6c-1.6,1.5-3,3.3-4.4,5c-0.8,1-1.6,2-2.4,3c-0.1,0.1-0.2,0.3-0.4,0.2
				c-0.3-0.6-0.3-1.2-0.4-1.8c-0.3-2.2-0.9-4.4-1.6-6.5c-0.6-1.7-1.8-3.1-3.3-4.1c-1.1-0.7-2.1-1.4-3.4-1.7c-0.1,0-0.2-0.1-0.3-0.1
				c0.1-0.3,0.3-0.2,0.5-0.4c0.2-0.1,0.4-0.2,0.6-0.3c-1.1,0.5-2.1,0.7-3.2,0.7c-1,0-2,0-3-0.3c-1.9-0.6-3.8-1.3-5.7-1.8
				c-2-0.6-4-0.6-6.1-0.3c-2.3,0.3-4.6,0.9-6.9,1.2c-1.3,0.2-2.7,0.3-4.1,0.3c-1,0-2,0-3-0.2c-0.2,0-0.4-0.1-0.5-0.2
				c0.2-0.2,0.1-0.5,0.1-0.8c-0.2-1,0.1-1.9,0.8-2.6c0.9-0.8,1.6-1.6,2.6-2.3c1.7-1.2,3.4-2.3,5.4-2.8c0.6-0.2,1.1-0.4,1.7-0.6
				c0.2-0.1,0.4-0.2,0.4-0.5c0.2-0.3,0.2-0.7,0.2-1c0-1.6,0.1-3.2,0.4-4.8c0.3-1.4,0.7-2.7,1.1-4c0.6-1.7,1.6-3.3,2.6-4.8
				c0.3-0.4,0.5-0.8,0.8-1.1c0.1-0.1,0.2-0.3,0.4-0.4c0.5-0.2,0.9-0.6,1.4-0.9c1.8-1.3,3.6-2.5,5.5-3.5c1.6-0.8,3.3-1.5,5.1-1.9
				c0.1,0,0.1,0,0.2-0.1c3.2-1.2,6.4-1,9.7-0.5c0.7,0.1,1.5,0.2,2.2,0.5c0,0,0-0.1,0-0.1c0.2-0.1,0.3,0,0.5,0.1
				c2.5,1,4.8,2.2,6.9,3.9c1.6,1.3,3.1,2.7,4.4,4.3c0.9,1.1,1.5,2.4,2,3.7c0.9,2,1.5,4.2,1.9,6.4c0.6,3.1,1.3,6.1,1.8,9.2
				c0.4,2.2,0.6,4.5,0.8,6.7c0.2,2.1,0.3,4.1,0.4,6.2c0.1,1.3,0.1,2.6,0.2,3.9c0.1,2,0.1,4,0.2,5.9c0,1.4,0.1,2.7,0.1,4.1
				c-0.1,2-0.1,4.1-0.2,6.1c0,0.3,0,0.3-0.2,0.4c0-0.4,0-0.9,0-1.3c0,1.1,0,2.2-0.1,3.4c-0.2,1.7-0.3,3.5-0.5,5.2
				c-0.2,2-0.4,3.9-0.4,5.9c0,0.6-0.2,1.2,0,1.9C69.9,84.9,69.8,85,69.7,85.1z"/>
			<path class="st3" d="M42.6,42.7c1,0.3,1.9,0.6,2.8,1.2c1.1,0.7,2.2,1.5,3,2.5c0.9,1.2,1.5,2.6,1.8,4.1c0.3,1.4,0.8,2.9,1,4.3
				c0.1,0.7,0.2,1.4,0.4,2.1c0,0.4-0.3,0.6-0.5,0.9c-1.3,1.8-2.7,3.4-4.1,5.2c-0.9,1.3-1.8,2.6-2.8,3.8c-0.6,0.8-1.1,1.6-1.4,2.4
				c-0.1,0.4-0.2,0.7-0.3,1.1c-0.1,0.6,0.2,1.1,0.8,1.4c1.1,0.6,2.3,0.7,3.5,0.4c0.2-0.1,0.4-0.2,0.7-0.2c0.1,0,0.2,0,0.3,0.1
				c0.3,0.2,0.6,0.2,0.9,0.1c1.2-0.4,2.3-0.9,3.3-1.5c0.4-0.2,0.7-0.5,1.2-0.5c0.1,1.5,0.1,2.9,0.2,4.4c0.1,1.2,0.1,2.3,0,3.5
				c0,1.7,0.1,3.4,0.1,5.1c0,0.7,0.1,1.3,0.1,2c-6.8,0-13.7,0-20.5,0c-0.1-0.1-0.1-0.2-0.1-0.4c0-1.1-0.1-2.3-0.2-3.4
				c-0.1-1.2-0.2-2.4-0.3-3.6c-0.1-1.2-0.2-2.4-0.3-3.6c-0.3-4.4-0.7-8.8-1.8-13.1c-0.5-1.8-1.1-3.5-1.7-5.2
				c-0.1-0.2-0.1-0.3-0.1-0.5c0-0.3,0.2-0.4,0.5-0.4c2.2,0.3,4.4,0.6,6.6,1.3c0.5,0.2,0.6,0.1,0.6-0.3c0,0-0.1-0.1-0.1-0.1
				c-1.7-1.2-3.5-2.3-5.5-3c-0.8-0.3-1.6-0.5-2.4-0.7c-0.1,0-0.2-0.1-0.3-0.2c-0.1-0.2,0.1-0.3,0.2-0.4c0.4-0.1,0.9-0.3,1.3-0.4
				c0.7-0.2,1.4-0.4,2.1-0.7c0,0,0,0,0.1-0.1c0,0,0,0-0.1-0.1c-1.8,0-3.6,0.3-5.4,0.8c-1.5,0.4-2.9,0.8-4.5,1
				c-1.4,0.2-2.8,0.2-4.2-0.1c-0.2,0-0.3,0-0.5-0.1c-1.2-0.2-2.3-0.7-3.3-1.4c-1-0.7-1.2-2-1-3.1c0-0.2,0.1-0.3,0.2-0.5
				c0.1-0.2,0.2-0.4,0.5-0.3c0.2,0.1,0,0.3,0,0.5c-0.2,1,0.3,1.7,1.2,2c0.9,0.3,1.9,0.3,2.9,0.2c1.3-0.1,2.5-0.2,3.8-0.4
				c3.5-0.6,7-1.2,10.4-2.4c1.6-0.5,3.1-1.2,4.6-2c0.8-0.4,1.4-0.9,2-1.6c0.2-0.3,0.6-0.4,0.9-0.4c1,0,2,0,3-0.3
				C42.3,42.6,42.5,42.6,42.6,42.7z"/>
			<path d="M27.9,15.5c-2,2.4-3.5,5-4.3,7.9c-0.2,0.7-0.4,1.5-0.6,2.2c-0.1,0.1,0,0.2-0.1,0.3c0,0.1,0,0.2-0.1,0.2
				c-0.1,0-0.2-0.1-0.2-0.2c-0.1-0.2,0-0.4,0-0.5c0.1-0.4,0.2-0.9,0.3-1.3c0.2-1.1,0.6-2.1,1-3.1c1.5-3.4,3.6-6.5,6.6-8.8
				c2.8-2.2,6-3.6,9.5-4.4c2.6-0.7,5.2-0.8,7.9-0.5c1.4,0.2,2.8,0.8,4.1,1.2c4.8,1.7,8.8,4.5,11.9,8.5c1.2,1.5,1.9,3.4,2.6,5.2
				c0.9,2.5,1.4,5.1,2,7.7c0.1,0.6,0.2,1.2,0.4,1.8c0.3,0.5,1,0.6,1.5,0.9c3.2,1.8,5.9,4.3,8,7.3c0.5,0.7,0.8,1.5,1,2.4
				c0,0.1,0,0.3,0,0.4c0,1-0.3,1.3-1.3,1.1c-1-0.2-2-0.4-3-0.4c-1.5,0-2.9,0.3-4.1,1.3c-0.2,0.2-0.3,0.3-0.2,0.6
				c0.3,3.4,0.4,6.8,0.5,10.1c0.1,2.9,0.1,5.9,0.1,8.8c0,2.8-0.1,5.6-0.3,8.4c-0.2,4.1-0.4,8.1-0.7,12.2c0,0,0,0.1,0,0.1
				c-0.2,0-0.3,0-0.5,0c-0.2-0.5,0-0.9,0-1.4c0.1-1.2,0.2-2.4,0.2-3.6c0-1.1,0.1-2.1,0.2-3.2c0.1-0.6,0.1-1.2,0.1-1.8
				c0.1-1.6,0.2-3.2,0.2-4.7c0-0.2,0-0.4,0.1-0.5c0.1-1.5,0.1-3,0.2-4.5c0-1.8,0.1-3.6,0-5.4C71,53.4,70.8,46.9,70,40.5
				c-0.4-3.3-1-6.6-1.7-9.9c-0.4-2-0.8-4.1-1.4-6.1c-0.6-2.3-1.4-4.5-2.7-6.4c-2.3-3.2-5.3-5.9-8.9-7.7c-1-0.5-2-1-3.1-1.4
				C52.2,9,52.1,9,52,9c-0.2,0.1-0.4,0-0.5-0.1c-1.1-0.3-2.1-0.8-3.2-1c-1.6-0.2-3.1-0.3-4.7-0.2C40.4,8,37.4,9,34.5,10.4
				c-1.1,0.6-2.3,1.2-3.3,1.9c-1,0.8-2,1.7-2.8,2.8C28.3,15.2,28.2,15.4,27.9,15.5z"/>
			<path d="M16.9,52.1c0.6,0.1,1.1,0.1,1.7,0.2c1.5,0.2,3,0,4.5-0.4c2.5-0.6,5-1.3,7.6-1.5c0.3,0,0.6-0.1,1,0
				c0.1,0.2-0.1,0.3-0.2,0.3c-0.4,0.1-0.8,0.2-1.1,0.2c-1.3,0.2-2.6,0.3-3.8,0.7c-0.1,0-0.3,0.1-0.5,0.1c-0.1,0,0,0,0,0c0,0,0,0,0,0
				c0.6,0,1.2,0.1,1.8,0.3c1.7,0.4,3.3,1,4.9,1.8c1.2,0.6,2.3,1.3,3.3,2.1c0,0.2-0.1,0.1-0.2,0.2c-0.7-0.2-1.3-0.6-1.9-1
				c-1.4-0.9-2.8-1.6-4.4-2.1c-0.6-0.2-1.2-0.4-1.8-0.5c0.2,0.4,0.2,0.9,0.4,1.3c0.2,0.5,0.4,1,0.4,1.5c0.5,1.6,1,3.1,1.5,4.7
				c1,3.2,1.5,6.4,1.8,9.8c0.2,2.3,0.3,4.7,0.6,7c0.3,2.7,0.5,5.4,0.5,8.1c0,0.1,0,0.2,0,0.3c-0.1,0-0.3,0-0.4,0
				c-0.1-2.1-0.1-4.1-0.3-6.2c-0.4-4.3-0.5-8.7-1.2-13c0-0.2-0.1-0.4-0.1-0.6c-0.2,0-0.3,0.2-0.4,0.3c-0.9,1-1.9,1.9-2.9,2.8
				c-0.2,0.2-0.5,0.5-0.5,0.8c-0.2,0.6-0.6,0.9-1.2,1.1c-1.1,0.4-2.1,0.1-2.8-0.7c-0.7-0.7-0.9-1.6-0.8-2.5c0.1-2.3,1-4.4,2.1-6.4
				c1.1-1.9,2.2-3.8,3.4-5.6c0.2-0.3,0.2-0.5,0.1-0.8c-0.2-0.5-0.4-1.1-0.5-1.7c-0.1-0.2-0.2-0.3-0.4-0.4c-1.1-0.1-2.2-0.4-3.4,0.1
				c-0.2,0.1-0.5,0.1-0.7,0.1c-1,0.2-1.9,0.3-2.9,0.3c-0.4,0-0.9,0-1.3-0.1c-0.6,0-1.2-0.2-1.7-0.3c-0.1,0-0.3,0-0.2-0.2
				C16.7,52.1,16.8,52,16.9,52.1z"/>
			<path class="st4" d="M70.9,69.8c0,1.2-0.1,2.5-0.1,3.7c-0.2,3.6-0.4,7.2-0.7,10.8c0,0.3-0.1,0.6-0.1,0.8c-0.1,0-0.2,0-0.3,0
				c0.2-0.2,0-0.4,0-0.6c0.1-1.1,0-2.3,0.1-3.4c0.1-0.5,0-1,0.1-1.5c0.1-1.5,0.3-3.1,0.4-4.6c0.1-0.8,0.1-1.6,0.2-2.4
				c0.1-1.5,0.3-2.9,0.2-4.4c0,0,0.1,0,0.1,0C70.9,68.7,70.9,69.3,70.9,69.8z"/>
			<path class="st5" d="M16.9,52.1c-0.1,0-0.2,0-0.2,0.1c0,0.1,0.1,0.1,0.2,0.1c0.6,0.1,1.2,0.2,1.9,0.3c1.2,0.1,2.4,0,3.6-0.2
				c0.1,0,0.3,0,0.4,0c-1.2,0.3-2.3,0.4-3.5,0.4c-1.7-0.1-3.4-0.4-5-1.2c-0.9-0.4-1.6-1.1-1.8-2.1c-0.3-1.2-0.1-2.3,0.9-3.2
				c0.7-0.6,1.5-1.2,2.4-1.6c1.8-0.8,3.5-1.7,5.3-2.5c1-0.4,1.9-0.8,2.9-1.2c0.2-0.1,0.4-0.2,0.6-0.3c-0.3-0.1-0.6,0-0.9,0.1
				c-2.7,0.5-5.5,1-8.3,1.1c-1.2,0-2.5,0-3.7-0.3c-2-0.4-2.1-1.8-1.5-3.3c0.2-0.6,0.7-1.1,1.2-1.5c2.5-2.3,5.3-4,8.6-4.8
				c0.7-0.2,1.4-0.4,2.1-0.6c0.2-0.1,0.3-0.1,0.2-0.4c-0.2-2.2,0.1-4.4,0.6-6.5c0-0.1,0.1-0.3,0.1-0.4c0,0.4-0.1,0.9-0.2,1.3
				c-0.1,0.3-0.1,0.5,0.2,0.7c0.1-0.1,0-0.3,0.2-0.4c-0.1,1.1-0.4,2.2-0.4,3.3c0,0.7,0,1.5,0,2.2c0,0.2-0.1,0.4-0.3,0.5
				c-0.4,0.3-1,0.4-1.5,0.5c-3.3,0.7-6.2,2.3-8.8,4.5c-0.5,0.4-0.9,0.8-1.2,1.3c-0.5,0.6-0.6,1.3-0.5,2.1c0,0.4,0.3,0.6,0.6,0.8
				c0.1,0.1,0.3,0.1,0.4,0.2c0.6,0.2,1.2,0.3,1.9,0.3c2.3,0.2,4.6,0,6.8-0.4c1.9-0.3,3.8-0.7,5.6-1c2.3-0.4,4.5-0.2,6.8,0.5
				c1.7,0.5,3.4,1.1,5.1,1.7c1,0.4,2,0.4,3.1,0.3c0.7,0,1.5-0.1,2.2-0.4c0.1,0,0.1,0,0.2,0.1c-0.1,0.2-0.3,0.2-0.4,0.2
				c-1.1,0.3-2.3,0.5-3.5,0.3c-0.4,0-0.5,0.2-0.7,0.4c-0.5,0.6-1.1,1.1-1.8,1.4c-2.8,1.6-5.8,2.6-8.9,3.3c-2.4,0.6-4.8,1-7.3,1.4
				c-1.7,0.2-3.3,0.4-5,0.2c-0.6-0.1-1.1-0.1-1.6-0.6c-0.5-0.5-0.7-1.2-0.4-1.9c0-0.1,0-0.1,0-0.2c0,0,0,0,0-0.1
				c-0.3,0.2-0.5,0.6-0.6,0.9c-0.3,1.2,0.2,2.3,1.3,3C14.9,51.5,15.9,51.9,16.9,52.1z"/>
			<path d="M47.4,72c-1.2,0.5-2.4,0.6-3.7,0.1c-0.4-0.2-0.9-0.3-1.1-0.8c-0.4-0.6-0.3-1.2-0.1-1.8c0.3-1.1,0.9-2,1.5-2.9
				c1.1-1.4,2.1-2.9,3.2-4.3c1.3-1.7,2.6-3.4,4-5c0.1-0.1,0.2-0.3,0.3-0.5c0.8-0.9,1.5-1.8,2.2-2.7c1.5-1.9,2.9-3.8,4.7-5.4
				c0.4-0.4,0.8-0.7,1.3-0.8c0.1,0,0.3-0.1,0.4,0c0.1,0.2-0.2,0.2-0.2,0.3c-0.1,0.2-0.4,0.3-0.6,0.4c-0.5,0.4-0.9,0.9-1.3,1.4
				c-1.8,2-3.5,4.2-5.2,6.3c-1.4,1.8-2.8,3.6-4.2,5.4c-1.7,2.1-3.2,4.3-4.8,6.6c-0.4,0.6-0.6,1.4-0.8,2.1c-0.1,0.4,0.1,0.7,0.3,0.9
				c1,0.6,2.1,0.8,3.2,0.4c1.8-0.5,3.5-1.5,5.2-2.3c1.6-0.8,2.9-1.9,4.3-3c1.6-1.3,3.1-2.6,4.5-4.2c1.1-1.2,2-2.6,2.7-4.1
				c0.1-0.1,0.1-0.3,0.3-0.3c0.2,0,0.2,0.2,0.2,0.4c-0.1,0.8-0.5,1.4-0.9,2c-0.6,1.1-1.4,2-2.3,2.9c-2.1,2.2-4.4,4.1-6.9,5.8
				c-1.6,1.1-3.3,1.9-5,2.6C48.1,71.7,47.8,71.9,47.4,72z"/>
			<path class="st6" d="M47.4,72c1.4-0.7,2.7-1.3,4.1-1.9c2.2-1.1,4.1-2.7,6.1-4.3c1.7-1.4,3.2-2.9,4.5-4.7c0.6-0.9,1.1-1.8,1.5-2.8
				c0.1,0.9,0.2,1.7-0.1,2.6c-0.3,1-0.9,1.7-1.5,2.5c-1.1,1.5-2.7,2.4-4.2,3.5c-1.5,1.2-3,2.2-4.7,3.1c0,0-0.1,0.1-0.1,0.1
				c-0.4,0.2-0.9,0.5-1.3,0.7c-0.9,0.5-1.8,0.9-2.7,1.2C48.4,72.2,47.9,72.5,47.4,72z"/>
			<path class="st7" d="M27.9,15.5c1-1.5,2.2-2.8,3.7-3.7c3.4-2.2,7.1-3.6,11.1-4.1c2.7-0.4,5.4-0.2,8,0.8C51.2,8.7,51.6,8.8,52,9
				c0.1,0.1,0.2,0.2-0.1,0.2c-0.8-0.1-1.5-0.3-2.3-0.4c-1.8-0.4-3.6-0.5-5.3-0.4c-0.9,0-1.8,0-2.7,0.3c-2,0.7-4,1.2-6,2.1
				c-2.7,1.2-5,2.9-7.4,4.6C28.2,15.5,28.1,15.7,27.9,15.5z"/>
			<path class="st7" d="M43.3,71.2c-0.5-0.1-0.5-0.6-0.4-0.9c0.1-0.8,0.3-1.6,0.8-2.2c1.4-2,2.8-4,4.3-5.9c2.9-3.8,5.9-7.6,8.9-11.2
				c0.7-0.8,1.4-1.7,2.2-2.4c0.2-0.2,0.5-0.3,0.8-0.4c0.2,0.2,0.1,0.4,0,0.5c-0.4,0.8-1.1,1.5-1.7,2.2c-1.4,1.7-2.9,3.3-4.4,4.9
				c-0.8,0.9-1.4,1.8-2.1,2.8c-0.8,1-1.6,1.9-2.4,2.9c-0.4,0.6-0.7,1.2-1.2,1.8c-0.6,0.8-1.2,1.5-1.8,2.3c-0.2,0.3-0.4,0.6-0.6,0.8
				c-0.4,0.7-1.1,1.3-1.4,2c-0.4,0.9-0.8,1.7-0.9,2.7C43.3,71.1,43.3,71.2,43.3,71.2z"/>
			<path class="st7" d="M11.3,41.1c-0.8-0.2-1.1-0.6-1.1-1.4c0-0.8,0.3-1.6,0.9-2.2c1.4-1.5,3.1-2.7,4.9-3.7
				c1.5-0.9,3.2-1.4,4.9-1.8c0.5-0.1,1-0.3,1.5-0.4c0.3,0.1,0.1,0.2,0,0.3c-0.2,0.2-0.5,0.3-0.7,0.4c-1,0.4-2.1,0.7-3.1,1.2
				c-1.4,0.6-2.7,1.5-3.9,2.4c-0.9,0.7-1.7,1.5-2.5,2.3c-0.8,0.8-0.8,1.9-0.5,2.9C11.6,41.2,11.4,41.1,11.3,41.1z"/>
			<path class="st8" d="M48.9,28.3c0.8,0,1.7,0.3,2.4,0.9c1.1,0.8,1.4,1.9,0.9,3.1c-0.2,0.6-0.2,1.2,0.1,1.8
				c0.3,0.6,0.5,1.2,0.3,1.9c-0.3,1-1.8,1.6-2.7,1.1c-0.4-0.2-0.5-0.6-0.5-0.9c0-0.2,0-0.3,0.1-0.5c0.2-0.7,0-0.9-0.7-1.1
				c-0.2-0.1-0.5-0.1-0.7-0.2c-0.4-0.1-0.8-0.3-1-0.6c-0.2-0.2-0.4-0.4-0.6-0.7c-0.8-0.9-1.1-1.9-0.6-3
				C46.4,28.9,47.5,28.2,48.9,28.3z"/>
			<path class="st9" d="M24.8,31.3c0.9-0.4,1.7-0.4,2.6-0.3c0.9,0.1,1.7,0.4,2.5,0.8c0.4,0.2,0.7,0.5,1,0.8c-0.2,0.1-0.3,0-0.5-0.1
				c-1.3-0.6-2.6-1-4-1.1c-0.4,0-0.7,0-1.1,0C25.2,31.4,25,31.4,24.8,31.3z"/>
			<path class="st10" d="M24.8,31.3c2-0.1,3.9,0.4,5.8,1.2c0.1,0.1,0.2,0.1,0.4,0.1c0,0.1,0.1,0.1,0.2,0.2c0,0.2-0.2,0.1-0.3,0.1
				c-0.8-0.3-1.5-0.5-2.3-0.8c-1.1-0.3-2.2-0.4-3.3-0.5C25,31.6,24.7,31.7,24.8,31.3z"/>
			<path class="st11" d="M38.3,43.4c0.1-0.4,0.3-0.5,0.8-0.5c1.3,0.1,2.5-0.1,3.7-0.5c-0.7,0.2-1.5,0.3-2.2,0.3
				c-1.1,0.1-2.1,0.1-3.1-0.4c1.4,0.4,2.7,0.4,4.1,0.2c0.7-0.1,1.4-0.3,2.1-0.7c0.1-0.1,0.2-0.1,0.3,0c0.1,0.1,0,0.2-0.1,0.2
				c-0.4,0.3-0.8,0.4-1.2,0.6c-1.2,0.3-2.4,0.4-3.7,0.3C38.6,43,38.5,43.3,38.3,43.4z"/>
			<path class="st12" d="M30.8,32.9c0.1,0,0.2,0,0.3-0.1c0.1,0,0.1,0.1,0.2,0.1c0,0.2-0.2,0.1-0.2,0.1C31,33,30.9,32.9,30.8,32.9z"
				/>
			<path class="st13" d="M31,33c0.1,0,0.2,0,0.2-0.1c0.1,0,0.1,0.1,0.1,0.1C31.2,33.1,31.1,33.1,31,33z"/>
			<path class="st14" d="M34,55c0.6,0.3,1.2,0.6,1.8,1c0.1,0.1,0.3,0.1,0.3-0.1c0.2,0.2,0.1,0.4,0,0.5c-0.1,0.2-0.3,0.1-0.5,0.1
				c-0.9-0.3-1.9-0.6-2.8-0.8c-1.4-0.3-2.7-0.4-4.1-0.7c-0.2,0-0.2,0.1-0.2,0.2c-0.2-0.5-0.3-1-0.5-1.4c-0.1-0.3,0.1-0.4,0.3-0.4
				c0.6,0,1.2,0.1,1.8,0.2C31.6,53.9,32.8,54.3,34,55z"/>
			<path class="st15" d="M25.9,51.6c1.7-0.4,3.5-0.7,5.3-0.9c0.2,0,0.5,0.1,0.5-0.3c0.1,0.3,0.1,0.3-0.2,0.4c-1,0.3-2.1,0.6-3.1,0.9
				c-0.2,0.1-0.5,0-0.5,0.3c-0.7,0-1.3-0.3-1.9-0.3C25.9,51.7,25.9,51.7,25.9,51.6z"/>
			<path class="st16" d="M36.2,55.9c0,0.3-0.2,0.1-0.3,0.1C35.9,55.9,36.1,56,36.2,55.9C36.1,55.9,36.2,55.9,36.2,55.9z"/>
			<path class="st2" d="M69.3,32.5c3.8,1.9,6.8,4.6,9.1,8.1c0.4,0.6,0.7,1.3,0.8,2c0,0.1,0,0.3,0,0.4c0,0.5-0.2,0.6-0.7,0.5
				c-1.1-0.2-2.1-0.5-3.2-0.4c-1.6,0-3,0.3-4.3,1.4c0,0-0.1,0-0.1,0c-0.3-3.9-0.8-7.9-1.6-11.7C69.2,32.6,69.1,32.5,69.3,32.5z"/>
			<path class="st17" d="M69.3,32.5c-0.1,0.1-0.1,0.2-0.1,0.3c-0.1-0.1-0.1-0.2,0-0.3C69.2,32.4,69.2,32.4,69.3,32.5z"/>
			<path class="st6" d="M28.2,55.5c1,2.9,2,5.8,2.5,8.8c0.1,0.3,0,0.5-0.2,0.7c-1,1-2,2.1-3.1,3c-0.4,0.4-0.7,0.8-0.9,1.3
				c-0.2,0.5-1.1,0.9-1.7,0.8c-1.3-0.1-2.1-1.1-2.2-2.4c0-0.8,0.1-1.6,0.2-2.4c0.1-0.2,0.1-0.4,0.2-0.6c0.5-1.1,0.8-2.3,1.5-3.3
				c1.2-1.7,2-3.6,3.3-5.2C28,56,28.1,55.7,28.2,55.5z"/>
			<path class="st18" d="M34,55c-0.5-0.1-1-0.4-1.5-0.6c-1.3-0.5-2.7-0.8-4.1-0.9c-0.2,0-0.4,0-0.4,0.3c-0.2-0.5-0.3-0.9-0.5-1.4
				c0.5,0,0.9,0.2,1.3,0.3c1.8,0.5,3.4,1.3,5,2.2C33.9,54.9,34,54.9,34,55z"/>
			<path class="st19" d="M28.2,55.5c0,0.2-0.1,0.5-0.2,0.7c-1.3,1.8-2.3,3.8-3.5,5.6c-0.5,0.7-0.7,1.6-1.1,2.3
				c-0.1,0.2-0.2,0.4-0.3,0.6c-0.2,0-0.1-0.2-0.1-0.3c0.4-1.5,1.2-2.9,2-4.3C26,58.6,27,57,28,55.5C28.1,55.4,28.1,55.1,28.2,55.5z"
				/>
			<path class="st20" d="M23.1,64.4c0,0.1,0,0.2,0.1,0.3c-0.1,0.2-0.1,0.4-0.3,0.6C22.9,65,23,64.7,23.1,64.4z"/>
			<path class="st21" d="M25.9,51.6c0,0.1,0,0.1,0,0.2c-0.1,0-0.3,0.1-0.3-0.1C25.7,51.5,25.8,51.6,25.9,51.6z"/>
			<path class="st22" d="M14.1,48.8c-0.6-0.5-0.7-1.3-0.1-1.9c0.4-0.5,0.8-0.9,1.3-1.2c2.4-1.6,5-2.7,7.7-3.8c0.9-0.4,1.7-0.7,2.6-1
				c1.2-0.5,2.4-0.5,3.6-0.5c1.8,0.1,3.5,0.7,5.1,1.3c1.2,0.4,2.4,0.8,3.6,1.2c0.4,0.1,0.4,0.2,0.1,0.5c-1.2,1.1-2.7,1.9-4.2,2.5
				c-1.2,0.5-2.3,0.9-3.6,1.2c-1-1.2-2.4-1.8-3.8-2.4c-0.4-0.2-0.9-0.1-1.3-0.1c-0.4,0-0.7-0.1-1-0.3c-0.5-0.3-1-0.4-1.6-0.3
				c-2,0.5-4.1,1.1-6,2.1c-1.1,0.6-1.9,1.4-2.3,2.6C14.2,48.7,14.1,48.8,14.1,48.8z"/>
			<path class="st23" d="M14.1,48.8c0-0.4,0.2-0.7,0.4-1c0.7-1,1.6-1.7,2.7-2.2c1.7-0.7,3.5-1.3,5.3-1.8c0.6-0.2,1.2,0,1.8,0.3
				c0.2,0.1,0.4,0.2,0.6,0.2c1.5-0.2,2.7,0.5,3.9,1.3c0.4,0.3,0.9,0.5,1.2,0.9c0.1,0.1,0.3,0.3,0.3,0.5c-1.2,0.4-2.5,0.7-3.8,1
				c-2.5,0.6-5.1,1-7.6,1.3c-1.2,0.1-2.4,0.1-3.6,0C14.7,49.2,14.3,49.1,14.1,48.8z"/>
			<path d="M14.8,51.6c-0.6-0.1-0.8-0.2-1.1-0.7C14.1,51.1,14.4,51.3,14.8,51.6z"/>
			<path d="M12.5,49.1c-0.1-0.1-0.1-0.2,0-0.3C12.6,48.9,12.6,49,12.5,49.1z"/>
			<path class="st3" d="M50.6,36.7c-0.7,0-0.9-0.2-0.7-0.9c0-0.1,0-0.2,0.1-0.3c0.4-1-0.4-1.4-1.1-1.5c-0.4-0.1-0.8,0-1.2-0.3
				c-0.6-0.6-1.3-1.2-1.5-2.1c-0.3-1.5,1.3-3.1,2.9-2.8c0.7,0.1,1.3,0.3,1.9,0.7c0.9,0.6,1.2,1.4,0.8,2.4c-0.3,0.8-0.2,1.6,0.2,2.3
				c0.1,0.1,0.1,0.3,0.2,0.4C52.6,35.9,51.9,36.7,50.6,36.7z"/>
			<path class="st24" d="M25.1,69.9c-1.3-0.1-2-0.9-2.1-2.2c-0.1-0.7,0-1.5,0.2-2.2c0-0.2,0.1-0.4,0.3-0.5c0.2-0.1,0.4,0.1,0.5,0.3
				c0.2,0.3,0.4,0.7,0.4,1.1c0.1,0.9,0.7,1.4,1.4,1.8c0.4,0.2,0.7,0.4,0.6,0.9c-0.1,0.3-0.7,0.7-1.1,0.7
				C25.3,69.9,25.2,69.9,25.1,69.9z"/>
		</g>
	</g>
</g>
</svg>
